<svg width="376" height="383" viewBox="0 0 376 383" fill="none" xmlns="http://www.w3.org/2000/svg">
<path d="M374.485 28.6635C374.515 28.4335 374.535 28.2135 374.565 27.9835C374.625 27.4235 374.215 26.9235 373.795 26.6335C371.075 24.7235 368.665 25.1936 365.375 25.3436C359.965 25.5936 354.545 25.8035 349.135 25.9735C338.795 26.3035 328.455 26.4935 318.105 26.5535C296.925 26.6635 275.755 25.7035 254.585 25.7235C253.545 25.7235 253.345 26.8635 253.895 27.4535C253.615 27.5135 253.365 27.6935 253.295 28.0435C250.205 43.4635 257.275 58.9836 268.395 69.5635C280.995 81.5635 298.575 86.4636 315.645 86.7636C331.785 87.0536 350.415 84.6535 361.785 72.0235C371.985 60.6936 375.335 44.7835 375.715 29.9635C375.735 29.1335 375.135 28.7135 374.485 28.6635ZM365.965 28.7935C365.915 28.9635 365.895 29.1436 365.925 29.3436C367.855 42.5436 363.415 55.9335 354.255 65.6235C344.465 75.9835 330.985 79.4435 317.025 78.6235C302.905 77.8035 287.565 74.5036 277.025 64.4736C267.015 54.9436 262.535 42.0535 262.655 28.4635C279.115 29.6535 295.695 29.7535 312.175 29.7435C316.285 29.7535 352.025 28.5635 365.965 28.7935ZM360.285 69.1035C349.745 81.4536 332.245 83.7836 316.865 83.7836C284.755 83.7635 252.775 63.5836 254.965 28.2736C254.975 28.0936 254.915 27.9435 254.835 27.8135C256.885 28.0135 258.925 28.1735 260.975 28.3335C259.445 42.2735 265.355 56.4735 275.405 66.0935C286.975 77.1735 304.175 80.6935 319.725 81.0935C348.605 81.8435 372.475 58.3435 368.255 28.8535C370.285 28.9335 371.495 29.0635 371.515 29.2635C371.575 30.2135 372.255 30.6736 372.945 30.6635C372.455 44.2236 369.295 58.5435 360.285 69.1035Z" fill="#B4CCB4"/>
<path d="M288.695 39.4136C287.835 38.0436 285.815 39.2435 286.535 40.6735C286.975 41.5435 287.215 42.4635 287.155 43.4435C287.085 44.4735 286.735 45.2635 287.255 46.2435C287.565 46.8335 288.495 47.1235 289.065 46.7135C291.235 45.1635 289.855 41.2736 288.695 39.4136Z" fill="#B4CCB4"/>
<path d="M329.805 43.4935C329.535 42.3035 329.895 41.0935 329.715 39.8935C329.685 39.6635 329.715 39.4135 329.715 39.2635C329.715 39.2135 329.715 39.1636 329.715 39.1136C329.715 38.6036 328.425 38.4535 328.325 38.9835C328.265 39.2735 327.575 39.5735 327.445 39.8835C327.305 40.2135 327.155 40.6935 327.115 41.0635C327.035 41.8135 326.975 42.5835 327.005 43.3435C327.065 44.7135 326.975 46.4535 328.075 47.4035C328.845 48.0735 329.985 47.8135 330.305 46.8135C330.675 45.6435 330.065 44.6535 329.805 43.4935Z" fill="#B4CCB4"/>
<path d="M352.115 38.4535C351.605 37.5935 350.035 38.1636 350.435 39.1636C350.915 40.3636 351.195 41.8435 351.295 43.1335C351.395 44.3935 351.025 45.6636 351.355 46.8736C351.655 47.9636 353.265 48.2236 353.815 47.1936C355.255 44.5436 353.505 40.7635 352.115 38.4535Z" fill="#B4CCB4"/>
<path d="M343.775 55.7036C343.565 54.1136 341.095 54.0036 341.195 55.7036C341.335 58.2036 341.055 61.2935 342.115 63.5935C342.565 64.5735 344.115 64.2735 344.355 63.3035C344.945 60.9535 344.095 58.0636 343.775 55.7036Z" fill="#B4CCB4"/>
<path d="M308.585 56.1035C307.825 54.9735 306.185 55.9435 306.765 57.1635C307.485 58.6635 307.945 60.2735 308.095 61.9335C308.225 63.3535 307.875 64.7635 308.205 66.1435C308.475 67.2535 310.155 67.5136 310.695 66.4736C312.295 63.3636 310.365 58.7535 308.585 56.1035Z" fill="#B4CCB4"/>
<path d="M96.4149 173.504C88.1449 163.794 72.6949 173.304 64.9549 179.124C55.3249 186.364 47.8349 196.214 43.9349 207.594C43.2149 202.314 41.2949 193.244 35.8549 198.094C29.8949 203.404 31.7249 215.824 34.7049 222.044C34.6549 222.044 34.6049 222.044 34.5549 222.044C34.2449 221.764 33.7749 221.684 33.3849 222.074C33.3749 222.084 33.3749 222.094 33.3649 222.094C32.6149 222.204 32.2049 222.774 32.1449 223.404C27.0349 228.974 23.7949 235.814 20.3549 242.534C16.3349 250.384 12.5649 258.364 9.02487 266.444C2.06487 282.294 -3.95513 298.534 -9.15513 315.044C-9.45513 315.994 -8.65513 316.874 -7.73513 316.914C-2.77513 317.094 -0.605131 313.124 2.24487 309.474C5.66487 305.094 8.99487 300.654 12.2249 296.134C20.1149 285.094 27.4049 273.624 34.0749 261.804C37.1849 256.284 40.1549 250.694 42.9849 245.024C45.0349 240.924 48.2349 235.874 47.9649 231.064C47.9349 230.584 47.8749 230.134 47.7949 229.704C53.8749 232.764 62.9949 232.994 67.6049 228.204C69.3349 226.404 70.1349 223.824 68.5849 221.644C67.5749 220.224 65.9749 219.644 64.2749 219.464C74.7249 216.654 84.1949 210.714 91.1949 202.314C97.4649 194.764 103.995 182.394 96.4149 173.504ZM43.5649 236.764C42.7449 240.604 39.7649 244.844 37.9549 248.354C34.0049 255.984 29.7949 263.484 25.3449 270.834C21.1249 277.794 16.6749 284.624 12.0149 291.294C9.68487 294.634 7.30487 297.934 4.86487 301.194C2.76487 304.004 -1.29513 311.384 -5.52513 313.404C-2.78513 304.834 0.194869 296.354 3.39487 287.944C3.59487 288.814 3.87487 289.654 4.28487 290.424C4.68487 291.174 5.84487 290.654 5.63487 289.854C5.23487 288.354 4.64487 286.964 4.37487 285.434C6.65487 279.544 9.01487 273.684 11.5349 267.884C11.8049 267.264 12.0949 266.654 12.3649 266.034C12.5349 267.094 12.8549 268.164 13.7349 268.754C14.1749 269.054 14.9349 268.774 15.0349 268.224C15.2449 267.044 14.5549 265.944 14.3349 264.784C14.1749 263.954 14.2549 263.044 14.0849 262.214C16.4849 256.914 18.9449 251.634 21.5149 246.414C21.7149 246.014 21.9149 245.594 22.1149 245.184C22.4749 247.174 23.1349 249.144 24.3949 250.374C25.0849 251.054 26.1149 250.354 25.9449 249.474C25.6849 248.164 24.8449 246.974 24.4149 245.704C24.0249 244.564 23.7549 243.384 23.5649 242.194C26.4249 236.244 29.3849 230.104 33.3749 224.924C33.4349 224.924 33.4749 224.954 33.5349 224.954C35.2949 224.934 37.3049 224.684 38.9849 225.284C42.5649 226.574 44.3149 233.254 43.5649 236.764ZM84.4049 205.114C76.5849 212.234 67.1849 216.254 56.8349 217.964C55.2249 218.234 55.5849 221.054 57.2249 220.844C57.9149 220.754 58.6049 220.644 59.2849 220.534C59.3349 220.914 59.6149 221.264 60.0549 221.244C62.2049 221.164 69.6449 220.904 65.0549 226.834C63.9049 228.314 59.9949 228.734 58.3149 228.864C53.6749 229.214 50.0549 227.534 46.0149 225.544C45.9049 225.494 45.7949 225.474 45.6849 225.454C43.4749 223.144 39.9249 222.284 36.3449 222.094C36.5049 221.884 36.5849 221.614 36.4749 221.314C34.6149 215.894 33.8949 210.354 35.4349 204.754C35.6749 203.864 36.1149 201.524 36.8349 201.014L39.9749 201.144C40.0749 201.534 40.1649 201.934 40.2649 202.324C41.4849 204.164 41.4149 208.414 42.0249 210.644C42.3149 211.684 43.9149 211.684 44.2249 210.794C44.4249 210.714 44.6049 210.574 44.7049 210.334C48.4949 201.304 53.6049 193.044 60.7349 186.264C67.3349 179.994 84.8349 166.404 93.7449 174.804C103.075 183.594 91.1749 198.964 84.4049 205.114Z" fill="#B4CCB4"/>
<path d="M137.325 198.404C137.405 197.754 137.505 197.104 137.645 196.464C138.435 192.634 140.355 189.424 141.865 185.884C142.315 184.824 141.055 183.534 140.125 184.544C138.315 186.494 136.995 188.904 136.105 191.524C132.355 184.204 123.905 178.364 115.865 181.734C115.085 182.064 114.595 182.864 115.075 183.684C119.205 190.874 126.245 195.964 134.585 196.794C134.715 196.804 134.815 196.774 134.905 196.734C134.795 197.564 134.735 198.404 134.685 199.234C120.485 194.394 105.605 203.084 103.325 218.114C101.185 232.194 112.375 244.794 126.175 246.284C139.805 247.754 153.045 237.624 156.345 224.534C159.515 211.854 151.625 197.024 137.325 198.404ZM134.755 195.414C134.265 195.284 133.805 195.134 133.325 194.984C132.185 193.464 130.485 192.274 129.055 191.044C127.315 189.544 125.585 188.054 123.825 186.584C123.305 186.154 122.565 186.854 123.075 187.334C124.715 188.924 126.375 190.484 128.045 192.054C128.565 192.544 129.085 193.074 129.615 193.604C124.945 191.494 121.035 188.254 118.235 183.774C122.075 182.904 125.875 184.104 128.935 186.784C131.725 189.214 133.115 192.434 135.085 195.384C135.075 195.454 135.055 195.524 135.045 195.594C134.975 195.514 134.885 195.444 134.755 195.414ZM151.975 227.704C147.495 237.904 136.155 245.084 124.875 243.084C114.245 241.194 105.535 231.754 106.035 220.714C106.705 206.054 120.855 197.774 134.345 200.824C134.455 200.844 134.545 200.844 134.635 200.834C134.625 203.354 134.875 205.844 135.415 208.084C135.685 209.214 137.655 209.004 137.495 207.804C137.205 205.664 137.055 203.524 137.105 201.384C151.725 200.234 157.095 216.064 151.975 227.704Z" fill="#B4CCB4"/>
<path d="M263.565 101.284C257.285 95.3235 248.185 98.1435 241.165 100.934C241.025 99.5435 241.065 98.2535 241.275 96.9935C241.795 96.8535 242.205 96.3835 242.005 95.7435C241.935 95.5035 241.835 95.2635 241.745 95.0335C242.165 93.6535 242.765 92.2835 243.545 90.8535C243.975 90.0735 242.895 89.1435 242.265 89.8635C241.525 90.7135 240.925 91.6735 240.455 92.7135C237.555 88.8535 232.025 87.1035 227.375 87.9435C226.625 88.0735 226.305 89.0635 226.675 89.6635C229.405 94.1235 234.085 97.0235 239.295 97.2635C239.165 98.9335 239.315 100.624 239.755 102.194C239.745 102.244 239.725 102.304 239.725 102.354C233.815 100.104 227.495 98.7035 222.425 102.784C217.045 107.114 217.305 115.274 218.205 121.404C219.225 128.334 221.875 137.304 228.045 141.514C232.995 144.894 239.755 144.364 242.955 139.104C245.095 143.374 250.245 143.144 254.055 140.324C260.205 135.784 264.335 126.854 266.325 119.684C268.005 113.644 268.525 106.004 263.565 101.284ZM229.675 90.0235C233.865 89.9035 237.135 92.2935 239.505 95.7035C239.505 95.7135 239.505 95.7235 239.495 95.7335C235.495 95.2335 232.005 93.2735 229.675 90.0235ZM264.675 115.124C264.055 119.484 262.475 123.664 260.455 127.564C259.725 128.974 258.935 130.364 258.065 131.704C256.225 134.534 248.455 145.884 243.825 137.334C243.535 136.794 242.795 136.924 242.525 137.354C242.085 137.204 241.565 137.284 241.205 137.764C233.355 148.344 224.565 135.014 222.335 128.764C220.705 124.194 219.725 119.084 219.955 114.214C220.815 95.9535 238.195 105.104 248.325 107.694C249.395 107.964 249.795 106.424 248.775 106.054C246.725 105.314 244.445 104.284 242.055 103.294C245.315 101.964 248.555 100.704 252.095 100.424C261.475 99.6835 265.845 106.844 264.675 115.124Z" fill="#B4CCB4"/>
<path d="M66.7349 371.914C66.4749 370.764 66.2149 369.624 65.9349 368.484C65.6549 367.314 65.5749 366.314 64.5349 365.584C63.9049 365.134 63.1549 365.514 62.7949 366.074C47.3649 367.674 32.7149 364.214 19.4649 356.164C12.3449 351.844 3.31492 340.974 -5.72508 345.504C-7.50508 344.264 -8.74508 342.584 -9.29508 340.464C-9.68508 338.984 -9.66508 337.424 -10.6551 336.164C-12.1151 334.304 -14.8951 334.084 -16.9051 335.134C-22.5951 338.114 -19.3551 345.504 -15.6251 348.974C-15.6851 349.084 -15.7251 349.214 -15.7051 349.374C-14.3051 365.654 4.28492 375.154 18.1949 379.264C32.2049 383.404 55.7449 386.154 66.1549 373.174C66.5749 372.984 66.8749 372.554 66.7349 371.914ZM20.1049 377.054C6.16492 373.164 -9.43508 364.864 -13.7251 350.084C-12.9151 349.964 -12.2451 348.964 -12.7651 348.174C-14.0251 346.244 -15.9951 344.764 -16.7251 342.504C-17.3751 340.504 -16.1751 335.634 -13.2251 337.624C-12.1551 338.344 -12.1851 339.994 -11.8151 341.144C-11.5351 341.994 -11.1151 342.814 -10.6251 343.564C-9.75508 344.864 -8.65508 345.914 -7.37508 346.744C-7.65508 347.564 -6.80508 348.524 -5.78508 348.064C2.52492 344.344 9.67492 353.274 15.9149 357.324C20.4849 360.294 25.3349 362.794 30.4149 364.764C40.7749 368.784 51.7849 370.344 62.6849 367.944C62.8449 368.434 63.0849 368.914 63.2749 369.404C63.5549 370.114 63.8349 370.824 64.1249 371.534C54.2149 382.954 33.1149 380.684 20.1049 377.054Z" fill="#B4CCB4"/>
<path d="M44.385 372.684C24.845 373.274 7.28498 366.524 -6.02502 351.994C-6.37502 351.614 -6.89502 352.164 -6.58502 352.554C5.64498 367.294 25.185 375.824 44.385 373.644C44.985 373.574 45.015 372.664 44.385 372.684Z" fill="#B4CCB4"/>
<path d="M366.955 -7.53648C366.585 -15.1365 363.255 -22.5465 358.695 -28.5365C356.375 -31.5965 353.605 -34.5565 350.095 -36.2565C345.355 -38.5465 339.475 -37.3265 335.195 -40.7065C334.605 -41.1765 333.895 -41.0265 333.435 -40.6465C330.105 -40.8065 328.455 -34.9365 327.015 -32.6365C322.485 -25.3865 319.005 -18.2265 318.935 -9.46647C318.835 4.24353 328.205 16.7635 342.245 18.4135C357.215 20.1835 367.645 6.59352 366.955 -7.53648ZM350.265 15.1135C337.665 18.9735 324.885 8.99353 322.185 -3.05647C320.585 -10.2065 321.875 -17.8665 324.915 -24.4565C325.675 -26.1165 331.075 -36.7265 333.935 -38.5065C336.705 -36.3965 339.495 -35.9265 342.985 -35.3265C350.635 -34.0065 355.375 -29.3365 359.185 -22.7965C366.275 -10.6165 366.625 10.1035 350.265 15.1135Z" fill="#B4CCB4"/>
<path d="M101.185 7.17352C100.955 0.473518 95.7348 -5.05648 89.2448 -5.25648C90.6148 -10.8565 87.3948 -16.2665 81.7248 -17.7365C83.4848 -28.0565 71.0648 -30.6365 63.7348 -25.5565C61.8848 -26.9265 59.7048 -27.8165 57.3548 -28.0965C53.2248 -28.5865 49.5048 -25.2465 45.8348 -25.9365C42.9948 -26.4665 40.8748 -29.3965 37.3648 -29.7265C29.4448 -30.4665 23.7148 -24.8965 22.2048 -17.6865C18.5548 -18.1465 15.6248 -16.8965 13.6548 -14.8265C13.5648 -14.8365 13.4948 -14.8665 13.4048 -14.8665C8.96478 -14.6365 5.01478 -12.3865 3.41478 -7.99648C2.90478 -6.59648 3.24478 -5.35648 2.87478 -3.98648C2.06478 -0.996481 0.934776 -1.05648 -1.04522 0.55352C-3.02522 2.16352 -4.89522 2.97352 -6.19522 5.36352C-7.31522 7.40352 -7.78522 9.81352 -7.52522 12.1235C-7.33522 13.8635 -5.72522 16.1635 -5.98522 17.6935C-6.17522 18.8535 -9.00522 21.3435 -9.55522 22.7835C-10.6452 25.6235 -10.7352 28.8235 -10.4152 31.8035C-9.94522 36.1835 -8.20522 41.4135 -4.40522 44.0435C-2.58522 45.3035 -0.805223 45.7835 1.41478 45.5435C2.65478 45.4035 3.93478 44.3635 5.12478 44.2935C11.3448 43.9035 8.84478 45.3235 11.1248 47.5135C19.1048 55.1535 28.9948 59.5135 39.1848 53.9235C42.8948 54.9635 43.7548 57.5935 45.5148 61.6235C45.4448 62.0735 45.6248 62.5235 46.0248 62.7535C46.0348 62.7835 46.0448 62.8035 46.0648 62.8335C46.3448 63.4335 47.1448 63.3035 47.4748 62.8535C50.1648 62.6135 52.8148 61.4335 55.3648 60.6335C58.5848 59.6235 61.8048 58.6235 65.0148 57.5635C65.9148 57.2735 66.4348 55.9935 65.6148 55.2935C63.7648 53.7235 62.3948 51.8035 61.1948 49.7435C71.6848 47.4235 81.1048 40.8135 86.3248 31.2935C87.5448 29.0635 88.4348 26.5735 88.8848 24.0735C95.4748 21.1835 101.435 14.7635 101.185 7.17352ZM22.9548 -14.7265C23.9148 -14.4865 24.6148 -15.1665 24.7248 -16.0665C25.7948 -24.8965 33.9048 -28.9765 41.4648 -25.2865C42.7348 -24.6665 44.8548 -22.5865 46.5548 -22.4165C47.7748 -22.2965 48.5348 -23.0965 49.5648 -23.5165C54.0048 -25.3565 58.5048 -25.3165 61.7748 -23.1865C61.8648 -23.0365 62.0148 -22.9365 62.1848 -22.8965C64.3748 -21.2965 65.9648 -18.6965 66.4648 -15.0065C66.5648 -14.2865 67.5048 -13.8665 68.1348 -14.0565C72.2048 -15.7565 74.4448 -14.3165 74.8648 -9.73648C76.6648 -8.16648 77.3848 -6.55648 77.0548 -4.91648C73.2248 -7.38648 67.9848 -7.57648 63.6848 -3.85648C62.4148 -7.72648 59.5648 -10.6365 55.3948 -12.0565C52.7548 -12.9565 49.9648 -12.9465 47.2548 -12.4165C43.2048 -11.6365 39.6348 -7.96648 35.8848 -7.46648C30.7348 -6.78648 27.0648 -10.2065 22.2348 -5.68648C20.6048 -4.16648 19.6648 -2.29648 19.2748 -0.326481C9.23478 -3.53648 13.0848 -17.1565 22.9548 -14.7265ZM19.7548 51.5835C16.3948 49.7735 14.4348 47.2535 12.2148 44.2835C11.5448 43.3835 11.3848 42.5235 10.4148 41.8335C7.50478 39.7435 5.53478 42.0735 2.63478 42.4135C-9.75522 43.8635 -10.8452 23.8835 -2.93522 18.9335C-2.37522 18.5835 -2.01522 17.6935 -2.45522 17.1035C-4.99522 14.3535 -5.47522 10.8935 -3.89522 6.73352C-2.07522 4.13352 0.244778 2.57352 3.05478 2.05352C3.45478 1.62352 4.30478 1.56352 4.74478 1.08352C5.27478 0.503519 5.59478 -0.996481 5.72478 -1.40648C5.86478 -2.25648 5.80478 -3.10648 5.53478 -3.96648C5.70478 -8.43648 7.77478 -11.0865 11.7248 -11.9365C9.53478 -6.97648 11.3148 -0.38648 18.8648 1.27352C18.9448 1.29352 19.0048 1.28352 19.0748 1.28352C18.9948 2.94352 19.2548 4.64352 19.8448 6.25352C14.2248 6.71352 9.85478 11.5035 9.22478 17.3335C8.42478 24.6835 13.7548 30.6235 19.1448 34.9135C15.9648 39.3035 18.4448 44.4335 22.7948 47.6135C26.2248 50.1335 31.3348 52.5335 35.7448 53.3435C30.4548 54.8235 24.7748 54.2935 19.7548 51.5835ZM77.4248 38.0735C72.2948 42.8735 66.1148 45.6735 59.3348 47.1335C59.1948 47.1335 59.0548 47.1635 58.9348 47.2335C57.2648 47.6135 57.8048 49.9335 59.3248 50.0535C60.1748 51.9835 61.2548 53.7435 62.4548 55.4935C59.8248 56.2535 57.1948 57.0235 54.5748 57.8135C52.0648 58.5635 49.2348 59.0535 46.9048 60.3035C45.8548 57.3335 44.8048 54.3635 43.7648 51.3835C43.5048 50.6335 42.8448 50.2635 42.0648 50.4135C37.0048 51.3935 32.7248 49.6435 28.4048 47.4335C25.1348 45.7635 16.3848 41.4435 22.2348 35.6935C22.9548 34.9835 22.6648 33.9735 21.9448 33.4335C18.2848 30.7035 14.4748 27.3635 13.0248 22.8935C10.9848 16.6435 14.3548 8.20352 22.1248 9.17352C23.2548 9.31352 23.8648 7.85352 23.3748 7.00352C18.6748 -1.21648 27.3748 -8.80648 35.0048 -3.72648C35.3848 -3.47648 36.0648 -3.43648 36.4348 -3.72648C43.3448 -9.01648 59.7848 -15.3165 61.5848 -1.15648C61.7148 -0.12648 63.0748 0.833519 63.9248 -0.186481C70.7048 -8.33648 83.4648 -1.25648 78.6948 8.89352C78.3248 9.68352 78.6048 10.6535 79.5148 10.9035C93.8448 14.8435 83.8748 32.0435 77.4248 38.0735ZM89.1948 20.8835C89.2848 15.6735 87.1648 10.8635 81.6348 8.75352C83.2748 3.91352 81.8348 -0.496479 78.9748 -3.36648C82.8348 -9.60648 78.2148 -15.7265 71.6048 -17.2865C69.8848 -17.6865 69.8348 -17.0565 68.7848 -17.8465C68.4848 -18.0765 67.1348 -21.8265 66.9648 -22.0865C66.4748 -22.8565 65.9148 -23.5465 65.2948 -24.1865C71.4148 -26.4765 81.8648 -27.8265 78.8748 -17.0765C78.6248 -16.1665 79.3148 -15.5065 80.1448 -15.4065C85.9848 -13.8865 87.9948 -10.2565 86.1848 -4.51648C85.8148 -3.70648 86.2248 -2.34648 87.3448 -2.48648C96.0448 -3.57648 100.585 6.20352 96.9848 13.1435C95.2348 16.5535 92.3048 18.8435 89.1948 20.8835Z" fill="#B4CCB4"/>
<path d="M25.755 84.2835C21.0249 79.1535 14.235 82.5135 8.53495 83.7735C0.564949 85.5335 -4.81505 82.8835 -9.91505 76.5435C-12.3151 73.5535 -14.425 70.9835 -18.045 69.4235C-18.225 69.3435 -18.3951 69.3135 -18.555 69.3135C-19.4851 64.6635 -23.8251 60.6335 -28.745 61.1935C-28.755 61.1735 -28.745 61.1535 -28.755 61.1335C-29.265 59.2635 -29.175 57.4435 -28.035 55.8135C-27.575 55.1535 -27.765 54.3035 -28.595 54.0635C-31.1051 53.3435 -34.7251 52.5035 -35.5651 55.7435C-36.2851 58.5135 -36.105 61.7735 -34.935 64.4235C-37.455 66.4135 -38.805 69.4135 -38.615 72.5935C-48.575 83.1335 -39.625 103.574 -31.015 112.094C-19.975 123.014 -2.31505 125.784 11.695 119.234C22.765 114.064 36.7449 96.2135 25.755 84.2835ZM-33.605 65.3435C-33.575 65.3135 -33.565 65.2735 -33.535 65.2435C-33.275 65.1035 -33.095 64.8535 -33.145 64.5235C-33.485 62.3535 -33.865 60.2935 -33.585 58.0835C-33.455 57.0135 -33.455 56.0635 -32.275 55.8635C-31.795 55.7835 -31.155 55.8435 -30.505 55.9335C-31.3551 57.7535 -31.575 59.8235 -30.835 61.7735C-30.705 62.1235 -30.465 62.3335 -30.195 62.4335C-30.245 63.0635 -29.845 63.7035 -28.975 63.7135C-25.515 63.7135 -22.4451 65.5035 -21.3351 68.5835C-23.055 67.9035 -24.9151 67.6635 -26.6551 68.5135C-27.6051 68.9735 -28.305 69.6635 -28.785 70.4835C-29.335 69.4735 -29.785 68.4135 -30.135 67.2335C-30.415 66.2835 -31.595 66.1035 -32.245 66.7635C-33.585 68.1135 -34.925 69.4735 -36.275 70.8235C-36.135 68.7635 -35.205 66.9735 -33.605 65.3435ZM25.4249 88.8935C29.5949 97.4835 23.0549 108.194 16.4249 113.244C5.39495 121.634 -10.705 122.164 -22.555 115.174C-34.3151 108.244 -45.635 88.1235 -37.865 74.6135C-37.425 74.8835 -36.845 74.8735 -36.3751 74.4035L-31.845 69.8635C-31.175 71.5135 -30.295 73.0135 -29.105 74.4635C-28.245 75.5235 -26.4551 74.8735 -26.8451 73.4135C-28.0251 69.0035 -21.805 70.9835 -20.215 71.9835C-19.705 72.3035 -19.125 72.1235 -18.7451 71.7335C-13.0251 74.5535 -11.265 80.9435 -6.17505 84.4935C-2.92505 86.7635 0.864948 87.3435 4.74495 87.0735C11.4049 86.6135 21.0649 79.8835 25.4249 88.8935Z" fill="#B4CCB4"/>
<path d="M126.535 101.314C120.425 91.6435 111.035 92.7135 101.125 89.9535C101.015 89.9235 100.915 89.9235 100.825 89.9235C97.9351 86.6235 98.1551 81.9635 96.3251 78.0035C94.9351 75.0035 92.7151 72.5335 90.0251 70.6335C83.4951 66.0235 75.2151 65.6735 67.8551 68.3835C51.3051 74.4935 42.5451 91.7735 46.0751 108.754C53.0151 142.124 110.645 159.074 127.445 124.534C131.065 117.114 131.005 108.394 126.535 101.314ZM116.365 133.664C99.7651 145.694 73.8651 141.084 59.4951 127.634C44.1351 113.274 43.5451 87.6435 61.2551 74.9135C70.7151 68.1135 85.8951 66.2635 93.0951 77.4135C96.2751 82.3335 95.2551 89.1535 100.805 92.3135C101.135 92.5035 101.495 92.4135 101.765 92.2135C111.755 95.6535 122.235 94.4235 126.535 106.814C130.065 117.024 124.675 127.644 116.365 133.664Z" fill="#B4CCB4"/>
<path d="M124.245 105.894C121.085 97.3635 108.395 93.3335 100.065 93.3535C100.055 93.3435 100.055 93.3335 100.045 93.3235C92.1951 87.3635 93.9451 75.3135 83.4051 71.9135C75.4151 69.3335 67.3951 73.0135 61.9451 78.9035C55.7851 85.5735 50.5051 95.8635 51.3451 105.174C52.1751 114.374 58.3151 122.284 65.2851 127.904C80.0951 139.864 105.035 145.244 118.535 128.214C122.705 122.954 126.765 112.724 124.245 105.894ZM122.715 114.604C120.725 123.604 115.525 130.884 107.035 134.684C91.0951 141.814 71.5451 133.864 60.7851 121.124C54.7951 114.034 51.6451 105.614 54.1551 96.3835C56.3751 88.1935 62.6251 78.3835 70.4051 74.6035C79.8851 69.9835 88.4451 74.4735 92.3751 83.5435C94.0851 87.4935 95.4851 91.0435 98.9151 93.5935C98.6951 93.9135 98.8551 94.4635 99.3651 94.5135C110.245 95.5835 125.845 100.454 122.715 114.604Z" fill="#B4CCB4"/>
<path d="M113.635 110.544C111.445 105.514 105.255 103.564 100.375 105.674C99.9951 105.834 99.8851 106.174 99.9351 106.514C96.9751 107.654 95.1051 111.924 95.1851 115.244C95.3351 121.404 100.135 125.534 106.235 124.014C112.265 122.514 116.255 116.584 113.635 110.544ZM108.415 120.704C104.385 123.004 99.1551 122.414 97.7351 117.504C96.5751 113.514 98.4751 105.744 104.165 107.694C104.495 107.804 104.665 107.324 104.395 107.154C104.205 107.034 104.025 106.954 103.845 106.864C106.535 106.744 109.195 107.634 110.825 110.024C113.275 113.594 112.185 118.554 108.415 120.704Z" fill="#B4CCB4"/>
<path d="M108.865 112.204C107.985 110.814 104.925 109.234 103.485 110.624C103.025 110.574 102.575 110.564 102.265 110.714C101.885 110.894 101.545 111.454 101.355 111.824C100.835 112.814 100.765 114.104 101.075 115.174C101.795 117.604 104.265 118.864 106.635 117.934C108.895 117.044 110.265 114.404 108.865 112.204ZM105.735 116.324C104.275 116.774 103.025 115.864 102.645 114.444C102.465 113.764 102.485 113.064 102.715 112.404C102.805 112.144 102.935 111.974 103.105 111.854C103.225 112.094 103.465 112.274 103.765 112.264C104.415 112.254 104.935 111.894 105.605 112.024C106.265 112.144 106.915 112.574 107.275 113.134C108.135 114.454 107.065 115.914 105.735 116.324Z" fill="#B4CCB4"/>
<path d="M242.265 56.6735C240.395 50.6035 231.525 51.1135 230.255 57.1335C228.305 55.6835 225.925 54.5735 223.625 53.5835C224.275 52.6435 224.535 51.4435 224.115 50.1135C223.675 48.7135 222.485 47.5435 221.075 47.1435C219.045 46.5735 217.225 47.9535 215.205 47.8035C215.185 47.8035 215.175 47.8135 215.155 47.8135C215.055 47.7335 214.955 47.6635 214.825 47.6135C208.595 45.3135 204.825 33.9735 200.945 29.0535C197.915 25.2135 194.305 21.9235 189.695 20.1135C180.625 16.5635 172.095 20.5235 168.265 29.3035C164.365 38.2435 166.795 48.8235 174.285 55.1235C178.235 58.4535 183.125 60.0035 188.185 60.5935C194.805 61.3735 203.675 58.8135 210.075 60.9835C211.905 63.0035 213.095 66.4235 216.335 65.4535C218.495 64.8035 218.825 62.8235 218.325 60.9435C219.335 61.4935 220.365 62.0135 221.425 62.4735C222.155 62.7935 222.945 63.1835 223.755 63.4535C222.555 65.0535 221.655 66.9235 222.255 68.9735C222.875 71.0635 224.945 72.6135 227.085 72.7735C231.845 73.1435 233.895 68.9035 233.505 64.9535C238.445 66.4235 244.065 62.5035 242.265 56.6735ZM219.295 58.4335C218.625 58.6435 217.705 58.2835 217.065 58.0935C216.965 58.0635 216.865 58.0635 216.775 58.0735C216.725 58.0235 216.685 57.9735 216.635 57.9235C215.825 57.1335 214.665 58.1335 215.125 59.0935C215.585 60.0435 216.965 61.5335 216.395 62.6635C215.255 64.9235 213.185 61.8935 212.485 61.0635C212.325 60.8735 212.155 60.6935 211.985 60.5235C211.955 60.4035 211.905 60.2735 211.775 60.1635C207.095 55.8935 198.175 58.2435 192.395 58.0035C185.925 57.7335 179.415 56.4235 174.725 51.6235C169.115 45.8835 167.625 36.8335 171.205 29.6035C178.945 14.0135 194.815 24.5335 201.445 34.5835C204.955 39.9035 207.545 47.9635 214.155 50.0535C214.585 50.1835 214.925 50.1035 215.195 49.9135C216.585 50.2135 217.695 49.6835 219.075 49.3935C221.625 48.8635 222.415 51.3735 221.445 52.6435C221.385 52.6235 221.335 52.5935 221.275 52.5735C220.715 52.3335 220.215 52.8635 220.345 53.3035C220.085 53.3535 219.805 53.3735 219.475 53.3135C218.205 53.1135 217.435 54.6635 218.585 55.4235C219.395 55.9835 221.355 57.7735 219.295 58.4335ZM232.395 61.8735C231.625 61.3035 230.325 62.2635 230.705 63.1735C231.635 65.3935 231.955 68.3835 229.325 69.8335C225.955 71.0735 224.325 69.8035 224.435 66.0235C224.755 65.2535 225.115 64.4935 225.495 63.7535C225.565 63.7535 225.625 63.7535 225.685 63.7535C226.425 63.6935 226.625 62.8435 226.045 62.4235C224.915 61.5935 223.345 61.4035 222.035 60.9335C221.425 60.7135 220.825 60.4635 220.225 60.2035C220.885 60.1135 221.505 59.8235 221.995 59.2335C223.155 57.8235 222.635 56.3635 221.645 55.1635C221.935 55.0335 222.205 54.8735 222.465 54.6935C223.525 55.2935 224.595 55.8735 225.645 56.4935C227.165 57.3735 228.615 58.4635 230.245 59.1035C230.545 59.2235 230.825 59.1035 231.025 58.8935C231.515 59.0235 232.055 58.8235 232.225 58.1435C233.385 53.3235 240.185 53.4735 240.305 58.6935C240.425 62.9935 235.335 64.0335 232.395 61.8735Z" fill="#B4CCB4"/>
<path d="M29.4249 156.444C29.5949 155.774 28.7249 155.294 28.2449 155.784C27.4749 156.574 26.7049 157.494 25.4249 157.184C23.9449 156.824 23.5849 155.234 23.9949 153.984C24.2449 153.224 23.1649 152.674 22.6449 153.224C22.1049 153.924 21.3649 154.214 20.4249 154.084C19.0449 153.204 18.9949 152.274 20.2949 151.294C20.8549 151.074 20.6449 150.234 20.0349 150.374C18.3349 150.774 17.5349 152.804 18.4349 154.314C19.2749 155.734 20.8449 155.864 22.2049 155.344C22.5649 158.964 28.3649 160.554 29.4249 156.444Z" fill="#B4CCB4"/>
<path d="M26.965 172.154C27.155 171.514 26.315 170.804 25.745 171.244C25.085 171.744 24.405 172.474 23.485 172.194C22.245 171.824 22.255 170.364 22.945 169.554C22.995 169.474 23.065 169.414 23.115 169.334C23.625 168.414 22.375 167.454 21.635 168.224C21.455 168.414 21.295 168.624 21.155 168.844C20.385 169.524 18.965 169.294 18.675 168.154C18.385 167.054 19.215 165.994 20.125 165.514C20.685 165.214 20.285 164.244 19.685 164.474C17.685 165.254 16.355 167.734 17.695 169.684C18.375 170.674 19.505 171.074 20.585 170.964C20.605 171.924 21.005 172.854 21.835 173.504C23.455 174.794 26.345 174.254 26.965 172.154Z" fill="#B4CCB4"/>
<path d="M19.195 190.724C19.265 190.684 19.345 190.664 19.405 190.604C37.365 174.974 45.295 149.643 42.295 126.404C42.185 125.574 41.415 125.064 40.625 125.474C30.465 130.804 20.375 139.034 13.565 149.014C13.385 148.864 13.205 148.694 13.005 148.564C12.565 148.214 11.855 148.073 11.435 148.573C8.48499 152.123 5.52499 155.654 2.60499 159.224C2.25499 159.654 2.15499 160.324 2.61499 160.734C3.90499 161.894 5.11499 163.154 6.46499 164.244C4.83499 170.474 4.63499 177.064 6.41499 183.844C6.58499 184.474 7.56499 184.334 7.54499 183.674C6.91499 166.914 12.325 152.794 22.505 141.784C25.755 146.414 32.695 153.563 38.865 150.683C35.725 164.913 28.335 177.854 17.725 188.954C17.665 189.014 17.645 189.074 17.605 189.134C17.005 189.284 16.485 189.834 16.685 190.604C18.405 197.374 17.705 204.114 14.735 210.324C11.015 204.953 10.255 199.194 10.145 192.744C10.195 192.694 10.255 192.654 10.315 192.594C11.425 191.504 9.72499 189.844 8.59499 190.894C3.96499 195.214 -1.65501 197.544 -7.85501 197.674C-3.94501 192.014 1.09499 189.033 6.93499 185.183C7.47499 184.823 7.10499 184.114 6.51499 184.194C-1.01501 185.324 -7.41501 192.004 -11.115 198.254C-11.615 199.094 -10.905 199.994 -10.035 200.054C-3.38501 200.494 3.04499 198.534 8.19499 194.464C7.06499 201.133 9.99499 208.414 14.095 213.494C14.595 214.114 15.655 213.844 15.995 213.224C19.885 206.264 20.955 198.464 19.195 190.724ZM4.79499 159.933C7.28499 156.993 9.75499 154.034 12.225 151.084C9.98499 154.694 8.19499 158.514 6.97499 162.494C6.30499 161.604 5.55499 160.753 4.79499 159.933ZM23.285 140.954C28.005 136.044 33.685 131.774 40.245 128.194C40.915 135.224 40.555 142.044 39.315 148.594C32.485 150.524 27.555 145.694 23.285 140.954Z" fill="#B4CCB4"/>
<path d="M34.2849 136.764C32.2049 135.844 30.0349 138.144 31.1549 140.174C31.4649 140.744 32.2149 140.314 32.1249 139.754C32.0049 139.024 32.9949 138.114 33.7249 138.204C34.5049 138.284 35.1749 137.154 34.2849 136.764Z" fill="#B4CCB4"/>
<path d="M296.185 -6.74649C291.575 -9.06649 285.165 -11.8665 279.945 -11.3765C279.555 -11.3365 279.215 -11.0665 279.025 -10.7165C278.885 -11.2065 278.425 -11.6465 277.775 -11.5465C277.065 -11.4265 276.495 -11.1265 276.015 -10.7265C275.415 -11.2165 274.515 -11.3965 273.745 -11.5065C272.915 -11.6265 271.785 -11.7565 271.005 -11.3065C271.195 -11.9365 270.995 -12.6865 270.165 -12.9165C264.715 -14.4165 258.515 -15.0565 252.995 -13.4865C252.445 -13.7965 251.675 -13.7665 251.325 -13.1265C249.475 -9.72649 247.925 -6.15649 246.465 -2.54649C246.165 -5.31649 246.265 -8.06649 246.615 -10.9065C246.695 -10.9165 246.775 -10.9365 246.845 -11.0165C247.265 -11.4565 247.855 -11.7265 248.475 -11.7165C249.055 -11.7065 249.535 -11.2365 250.105 -11.4065C250.335 -11.4765 250.565 -11.7165 250.545 -11.9865C250.435 -13.0265 249.145 -13.1965 248.285 -13.0765C247.715 -12.9965 247.215 -12.7565 246.805 -12.3965C247.025 -12.9365 246.875 -13.5965 246.145 -13.7565C241.785 -14.7365 236.455 -14.0165 232.185 -12.8265C231.905 -12.7465 231.755 -12.5365 231.695 -12.3065C231.385 -12.2865 231.085 -12.1365 230.895 -11.7465C230.855 -11.6665 230.815 -11.5765 230.765 -11.4865C229.495 -12.0565 227.775 -12.0565 226.605 -11.7765C226.585 -11.8265 226.575 -11.8865 226.545 -11.9365C226.605 -12.2365 226.445 -12.5565 226.045 -12.5965C218.545 -13.4065 201.585 -5.43649 204.955 4.31351C205.095 4.72351 205.415 4.95351 205.745 5.01351C207.015 8.23351 210.655 10.1635 214.375 11.1735C224.395 13.8835 235.455 14.6135 245.775 14.7435C256.585 14.8835 267.425 13.9535 278.055 11.9335C286.215 10.3835 294.575 8.34351 300.265 1.89351C300.665 1.43351 300.695 0.913505 300.525 0.473505C301.665 -2.9065 299.165 -5.24649 296.185 -6.74649ZM270.925 -10.1265C271.635 -9.76649 272.595 -9.82649 273.365 -9.62649C273.815 -9.50649 274.265 -9.28649 274.725 -9.12649C274.375 -8.52649 274.075 -7.88649 273.785 -7.25649C272.935 -5.43649 272.165 -3.58649 271.395 -1.72649C270.875 -4.50649 270.735 -7.28649 270.925 -10.1265ZM228.685 -10.5665C229.175 -10.4865 229.615 -10.2865 230.055 -10.0865C228.495 -6.94649 226.985 -3.79649 225.475 -0.626494C225.325 -3.92649 225.715 -7.17649 226.425 -10.4665C226.555 -10.5165 226.685 -10.5565 226.825 -10.5665C227.425 -10.6965 228.095 -10.6565 228.685 -10.5665ZM298.335 -0.0564947C287.545 10.3635 268.255 11.1535 254.135 11.7335C246.705 12.0435 239.265 11.8235 231.855 11.1135C224.835 10.4435 210.705 10.3235 207.115 2.73351C208.485 -5.26649 217.975 -8.43649 225.005 -11.0865C223.365 -6.43649 223.035 -1.52649 223.685 3.36351C223.815 4.32351 225.205 5.03351 225.755 3.92351C228.125 -0.926495 230.565 -5.74649 232.835 -10.6365C232.965 -10.9065 232.965 -11.1665 232.905 -11.4065C236.865 -11.5665 240.925 -11.3865 244.865 -11.6365C243.435 -7.08649 243.565 -2.16649 244.735 2.45351C245.075 3.80351 246.815 3.57351 247.255 2.45351C249.155 -2.44649 251.385 -7.18649 253.415 -12.0265C258.765 -11.8765 263.815 -11.7765 269.075 -10.5065C268.375 -6.13649 268.625 -1.72649 269.895 2.55351C270.275 3.81351 271.835 3.63351 272.275 2.55351C273.095 0.563507 273.925 -1.41649 274.725 -3.40649C275.405 -5.10649 276.145 -9.21649 278.325 -9.58649C278.605 -9.63649 278.785 -9.77649 278.905 -9.93649C278.975 -9.71649 279.125 -9.52649 279.415 -9.39649C282.375 -8.07649 285.725 -7.72649 288.805 -6.70649C291.725 -5.73649 298.205 -4.10649 298.665 -0.276495C298.545 -0.196495 298.435 -0.146495 298.335 -0.0564947Z" fill="#B4CCB4"/>
<path d="M322.075 114.324C323.685 109.994 314.355 104.114 311.085 103.314C310.895 103.264 310.715 103.284 310.555 103.334C310.535 103.264 310.515 103.184 310.495 103.114C308.595 97.9635 299.305 98.4635 295.175 99.7035C293.235 100.284 291.165 100.974 290.755 103.194C290.715 103.424 290.705 103.664 290.685 103.904C285.835 103.334 278.835 106.884 280.905 112.234C276.525 116.614 275.605 123.924 279.375 129.054C280.625 130.754 282.915 132.504 284.975 130.914C286.005 130.124 286.405 128.574 286.875 127.434C287.665 125.524 288.295 123.854 289.575 122.394C291.765 123.254 293.515 121.864 296.095 121.774C297.705 123.634 299.835 124.504 302.585 122.704C302.665 122.654 302.715 122.594 302.765 122.524C303.155 122.824 303.685 122.914 304.085 122.604C304.765 123.974 306.425 124.634 308.185 124.244C309.045 124.054 309.855 123.644 310.635 123.154C314.255 125.674 309.895 133.334 312.265 136.594C313.885 138.824 316.755 136.884 318.255 135.644C324.025 130.834 327.065 120.704 322.075 114.324ZM285.905 123.184C284.965 125.084 284.285 130.484 281.195 127.424C277.775 124.034 279.125 117.204 281.545 113.534C283.015 116.154 285.155 118.904 287.415 120.904C286.835 121.564 286.345 122.304 285.905 123.184ZM293.165 120.314C292.305 120.394 291.565 120.314 290.905 120.134C290.665 119.464 289.915 118.964 289.225 119.324C288.185 118.584 287.335 117.514 286.405 116.364C285.665 115.464 284.975 114.514 284.335 113.544C283.395 112.134 283.215 109.414 284.375 107.964C285.595 106.434 288.745 106.274 290.675 105.804C290.925 108.644 292.045 111.874 292.625 114.214C293.055 115.934 293.815 118.234 294.925 120.134C294.385 120.154 293.835 120.254 293.165 120.314ZM302.375 121.024C302.275 121.224 302.255 121.414 302.265 121.594C302.215 121.594 302.175 121.594 302.125 121.604C296.145 123.204 295.095 114.254 294.285 110.544C293.705 107.924 292.185 104.234 295.155 102.184C296.505 101.254 299.355 101.214 300.835 101.214C302.405 101.214 305.095 101.264 306.525 102.204C310.005 104.484 308.385 108.154 307.215 110.914C305.765 114.344 303.985 117.664 302.375 121.024ZM304.885 121.254C307.155 116.954 311.135 110.784 310.955 105.624C312.365 106.344 313.785 107.004 315.075 107.944C316.175 108.744 317.205 109.714 318.095 110.734C319.175 111.974 319.995 112.564 319.205 113.944C318.105 115.854 314.855 117.344 313.085 118.604C311.885 119.454 306.515 124.304 304.885 121.254ZM317.795 132.674C317.045 133.464 316.215 134.154 315.315 134.754C314.055 135.024 313.685 134.464 314.195 133.074C313.405 130.424 315.375 123.694 311.845 122.314C312.455 121.864 313.055 121.404 313.625 121.004C315.875 119.434 318.445 117.934 320.575 116.154C321.495 119.924 322.495 123.194 321.135 127.194C320.445 129.234 319.295 131.114 317.795 132.674Z" fill="#B4CCB4"/>
<path d="M190.325 75.4435C190.315 75.4135 190.295 75.4035 190.285 75.3735C190.795 71.2635 188.265 67.6435 184.165 66.1135C180.495 64.7435 176.325 65.5635 172.515 65.2635C166.225 64.7635 160.705 62.5535 154.795 60.5835C154.625 60.5235 154.485 60.5435 154.365 60.5935C149.775 59.0135 143.955 62.1335 142.385 66.6535C140.685 71.5635 144.375 78.2435 149.955 77.3935C149.005 85.4235 138.695 95.5335 142.465 104.344C143.305 106.304 143.925 106.984 146.085 107.574C150.205 108.694 151.385 106.874 156.615 109.314C159.255 110.544 161.485 112.554 164.115 113.834C183.175 123.114 183.745 95.1935 180.265 83.5735C182.765 84.4635 185.655 84.3035 187.845 82.7035C190.045 81.0935 191.215 78.0435 190.325 75.4435ZM185.945 81.1035C183.765 82.3635 181.165 81.8635 178.855 81.3435C178.085 81.1735 177.655 82.1735 178.315 82.6135C178.325 82.6235 178.335 82.6235 178.345 82.6335C178.195 82.8435 178.115 83.1135 178.165 83.4435C179.265 90.0335 181.755 99.9935 178.695 106.474C171.445 121.824 161.485 107.074 152.985 105.414C149.595 104.754 146.665 106.694 144.565 102.274C143.075 99.1435 146.355 92.4835 147.705 89.7335C149.805 85.4635 151.945 82.1335 151.535 77.2335C151.515 76.9735 151.405 76.7935 151.265 76.6635C151.325 76.3335 151.195 75.9835 150.805 75.8935C146.425 74.9135 143.035 71.2335 145.345 66.6035C147.605 62.0435 151.885 62.7735 156.035 63.2235C156.205 63.2435 156.355 63.1935 156.475 63.1035C159.985 65.0935 163.825 66.2535 167.875 66.8935C175.525 68.0835 187.065 65.4135 188.435 75.2035C188.305 75.4135 188.245 75.6835 188.325 76.0035C188.805 78.1035 187.815 80.0335 185.945 81.1035Z" fill="#B4CCB4"/>
<path d="M181.605 69.6235C173.545 67.7135 164.895 67.7035 156.755 66.4435C156.555 66.4135 156.385 66.4535 156.235 66.5335C153.535 64.9935 148.925 65.0635 147.605 68.2735C146.265 71.5335 149.395 74.2235 152.345 74.8635C154.405 80.8835 152.375 85.5135 149.485 90.7535C148.135 93.2035 146.115 96.1835 145.935 99.0935C145.635 104.154 149.935 103.864 153.865 103.814C158.505 105.874 163.055 108.304 167.735 110.024C170.705 111.114 173.295 110.874 175.195 108.154C180.225 100.984 177.635 87.5535 176.005 79.6635C175.825 78.8135 174.405 78.9935 174.475 79.8735C175.115 87.7635 177.435 96.8735 174.815 104.654C172.525 111.464 165.675 106.734 161.235 104.834C158.085 103.484 154.915 102.444 151.565 101.784C149.035 100.584 148.155 98.3935 149.665 94.0735C150.485 91.7335 152.225 89.6235 153.205 87.3135C154.975 83.1735 155.635 78.9335 153.445 74.9635C153.615 74.8835 153.705 74.6335 153.545 74.4935C151.935 73.1435 147.985 71.5835 149.255 68.8435C150.645 65.8435 154.325 67.8735 156.585 68.0335C156.615 68.0335 156.635 68.0135 156.665 68.0135C160.515 69.2035 164.675 69.4535 168.665 69.8735C172.835 70.3135 177.045 70.9435 181.245 70.9435C183.055 71.3435 184.185 72.5735 184.315 74.4635C184.415 75.9535 183.985 78.9835 182.085 79.0435C179.795 79.1135 177.535 77.4135 175.235 78.1035C174.985 78.1735 174.865 78.5235 175.075 78.7135C176.615 80.0935 179.735 80.5235 181.745 80.7235C183.565 80.9035 184.745 80.1935 185.355 78.4435C186.375 75.4435 186.035 69.1935 181.605 69.6235Z" fill="#B4CCB4"/>
<path d="M186.175 -28.8265C181.115 -33.8065 174.255 -35.0965 167.685 -32.7365C164.965 -31.7565 162.525 -29.9565 159.645 -29.3965C155.255 -28.5465 151.905 -30.2765 148.205 -32.0965C144.635 -33.8465 141.445 -35.2565 137.425 -35.3465C136.675 -35.3665 136.295 -34.8165 136.275 -34.2365C122.545 -31.9765 120.115 -12.9565 126.995 -2.32646C136.505 12.3535 157.095 17.1735 172.845 10.6635C187.315 4.67355 199.805 -15.4065 186.175 -28.8265ZM179.125 3.89354C166.845 13.2335 148.815 12.9335 136.535 3.73354C123.725 -5.86646 120.235 -28.4265 138.635 -32.8365C144.115 -32.1765 148.325 -28.4865 153.645 -27.1965C157.675 -26.2165 161.025 -27.2865 164.775 -28.7965C174.165 -32.5765 184.835 -31.7165 188.415 -20.3565C191.315 -11.0865 186.435 -1.65646 179.125 3.89354Z" fill="#B4CCB4"/>
<path d="M178.365 -12.6965C177.705 -19.3465 170.835 -24.9565 164.145 -22.7065C163.785 -22.5865 163.565 -22.3165 163.465 -22.0165C158.115 -21.8365 154.135 -16.9165 154.425 -11.3465C154.775 -4.53646 161.255 0.913544 168.035 0.0735435C174.255 -0.696457 178.985 -6.43646 178.365 -12.6965ZM168.745 -2.71646C164.055 -1.52646 158.785 -4.66646 157.315 -9.22646C155.575 -14.6265 158.825 -19.6065 163.965 -20.6465C164.095 -20.5865 164.245 -20.5565 164.425 -20.5565C169.715 -20.6965 174.635 -19.0165 175.725 -13.1165C176.625 -8.34646 173.385 -3.89646 168.745 -2.71646Z" fill="#B4CCB4"/>
<path d="M152.795 32.7835C152.575 32.5435 152.295 32.4935 152.045 32.5535C147.465 27.7935 140.765 24.7335 134.085 25.9235C130.635 26.5435 127.715 27.7535 124.125 27.4635C121.185 27.2235 118.535 26.1935 115.735 25.3735C112.025 24.2835 109.055 23.6335 105.415 24.7535C105.335 24.7535 105.245 24.7635 105.155 24.7935C103.375 25.3235 101.685 27.6735 101.645 29.5335C101.615 31.1635 102.575 32.3735 104.045 32.6435C104.145 32.9635 104.435 33.2035 104.815 33.0535C105.965 32.6035 107.135 32.4035 108.315 32.3435C110.335 49.4135 115.695 66.4435 119.775 83.1035C119.945 83.8035 120.975 84.1335 121.475 83.5535C132.585 70.5435 139.135 53.2635 146.705 38.0335C146.835 38.0835 146.965 38.1235 147.095 38.1735C147.115 38.2935 147.165 38.4035 147.315 38.4735C148.925 39.2835 150.815 39.0835 152.125 37.8035C153.305 36.6435 154.035 34.1035 152.795 32.7835ZM110.935 38.4335C113.285 37.0135 116.285 39.1335 116.705 41.6435C117.145 44.3035 115.195 45.5635 113.105 46.3335C112.415 43.6835 111.705 41.0435 110.935 38.4335ZM119.345 72.8135C119.065 71.6135 118.785 70.4135 118.515 69.2135C119.105 68.9435 119.895 69.1335 120.365 69.6135C120.965 70.2235 121.255 70.9835 121.465 71.7735C120.765 71.9935 120.075 72.2735 119.465 72.6835C119.415 72.7335 119.385 72.7735 119.345 72.8135ZM136.365 54.6735C136.345 54.6535 136.335 54.6335 136.315 54.6235C135.645 54.1635 134.965 53.7035 134.295 53.2435C133.925 52.9935 132.515 52.3335 132.535 51.7835C132.545 51.4735 133.065 51.0235 133.215 50.7535C133.245 50.6935 133.255 50.6335 133.285 50.5735C134.715 51.1135 136.055 51.7935 137.345 52.6335C137.015 53.3135 136.685 53.9935 136.365 54.6735ZM138.015 51.1935C136.405 50.1635 134.705 49.3535 132.885 48.7535C132.445 48.6035 131.815 49.0135 131.885 49.5135C132.035 50.6435 130.385 51.2535 131.045 52.5835C131.375 53.2435 132.185 53.5435 132.785 53.8735C133.785 54.4235 134.785 54.9635 135.785 55.5135C135.835 55.5435 135.885 55.5535 135.935 55.5635C131.695 64.3835 127.115 73.0635 121.245 80.5735C120.715 78.5235 120.225 76.4635 119.735 74.3935C119.935 74.4435 120.155 74.4135 120.375 74.2535C121.075 73.7435 121.755 73.3235 122.585 73.0335C122.965 72.9035 123.265 72.5035 123.125 72.0835C122.625 70.6235 121.935 68.6535 120.205 68.3935C119.575 68.2935 118.915 68.3235 118.375 68.5635C116.815 61.7635 115.305 54.9335 113.595 48.1835C117.035 47.9735 119.285 43.5935 118.245 40.5135C117.245 37.5435 113.245 35.1335 110.585 37.2835C110.075 35.6135 109.565 33.9435 109.005 32.2835C115.225 32.3035 121.745 36.5935 128.235 35.9135C131.365 35.5935 135.195 33.6635 138.295 34.1635C140.635 34.5335 142.655 35.9235 144.745 37.0635C142.445 41.6535 140.255 46.4235 138.015 51.1935ZM150.855 36.4735C150.445 37.0235 149.835 37.3635 149.175 37.5235C149.105 37.4535 149.025 37.3835 148.905 37.3435C148.245 37.0835 147.635 36.7535 147.055 36.4035C146.855 35.9735 146.405 35.6935 145.965 35.7035C144.285 34.5535 142.725 33.2835 140.645 32.7435C136.525 31.6735 132.105 33.4935 128.025 33.7335C120.185 34.2035 112.075 27.4935 104.685 31.6135C103.625 31.2535 103.605 29.5435 103.995 28.7435C104.515 27.6835 105.665 27.1435 106.165 26.1035C106.225 25.9835 106.245 25.8635 106.255 25.7435C113.495 26.3635 120.395 30.5735 127.655 29.7635C131.055 29.3835 134.125 27.6635 137.625 27.7935C142.795 27.9835 147.015 31.0435 151.015 33.9635C151.135 34.0535 151.245 34.0835 151.365 34.1035C151.415 34.4035 151.465 34.7035 151.435 35.0135C151.385 35.5435 151.175 36.0535 150.855 36.4735Z" fill="#B4CCB4"/>
<path d="M128.335 39.2735C128.255 38.9135 127.915 38.7235 127.575 38.6935C125.975 38.5335 124.255 38.4635 122.665 38.7735C122.145 38.8735 122.005 39.4035 122.145 39.8235C121.195 41.7635 122.845 44.3635 124.995 44.3335C127.485 44.2935 128.835 41.4535 128.335 39.2735ZM125.125 42.8335C123.655 43.0835 122.925 41.6035 123.065 40.3635C124.355 40.2935 125.595 40.1935 126.885 40.2435C126.915 41.3635 126.285 42.6335 125.125 42.8335Z" fill="#B4CCB4"/>
<path d="M140.435 38.7135C139.695 36.4135 136.335 34.6535 134.155 36.0435C133.935 36.1835 133.845 36.4435 133.875 36.6935C132.145 37.2935 131.155 39.2135 131.485 41.0335C131.925 43.4635 134.555 44.5735 136.805 44.1535C139.255 43.6935 141.255 41.2535 140.435 38.7135ZM136.475 42.3635C135.145 42.6735 133.565 42.1735 133.045 40.8235C132.525 39.4735 133.245 37.7435 134.645 37.3235C134.695 37.3135 134.705 37.2735 134.735 37.2535C136.155 37.4235 137.625 37.2235 138.495 38.6935C139.475 40.3535 138.115 41.9835 136.475 42.3635Z" fill="#B4CCB4"/>
<path d="M126.935 47.4835C126.445 47.0335 125.985 46.7735 125.315 46.6735C124.545 46.5535 124.205 47.6335 124.985 47.8635C125.155 47.9035 125.295 47.9735 125.425 48.0535C124.685 48.8935 124.005 49.8035 123.315 50.6935C122.965 51.1435 122.545 51.9635 122.085 52.2935C121.395 52.7935 120.865 52.5335 120.415 52.1135C122.015 50.6235 123.325 48.8735 124.335 46.9235C124.775 46.0735 123.525 45.3335 123.045 46.1735C121.885 48.2335 120.405 49.9435 118.595 51.4635C118.225 51.7735 118.305 52.3635 118.595 52.6835C119.665 53.8735 121.305 55.0735 122.845 53.9235C123.605 53.3535 124.155 52.3835 124.715 51.6435C125.505 50.5735 126.375 49.5235 127.045 48.3735C127.205 48.0935 127.175 47.7035 126.935 47.4835Z" fill="#B4CCB4"/>
<path d="M129.585 58.4535C128.135 56.5935 124.465 55.4935 122.625 57.4035C120.235 57.7035 119.475 61.0635 120.305 63.1735C121.475 66.1335 124.955 67.6835 127.795 66.0035C130.355 64.4935 131.505 60.8935 129.585 58.4535ZM127.895 63.3835C126.625 64.9835 124.565 65.2935 122.985 63.9435C122.295 63.3535 121.785 62.5435 121.575 61.6635C121.335 60.6335 121.585 59.2535 122.465 58.5735C122.595 58.6935 122.775 58.7535 123.005 58.6635C124.525 58.1335 125.885 57.7635 127.345 58.7435C128.985 59.8235 129.065 61.9035 127.895 63.3835Z" fill="#B4CCB4"/>
<path d="M160.365 154.014C159.175 151.384 157.265 150.654 155.685 148.524C152.815 144.674 155.055 141.514 153.575 137.694C149.995 128.414 133.935 130.624 131.595 139.584C131.555 139.744 131.545 139.894 131.575 140.034C126.675 146.304 127.525 156.894 132.535 162.754C138.585 169.834 152.185 172.454 159.055 164.974C161.825 161.964 162.015 157.664 160.365 154.014ZM151.735 166.574C144.455 168.564 135.995 165.224 132.365 158.564C128.285 151.074 131.635 143.804 135.665 137.304C135.775 137.134 135.675 136.954 135.535 136.874C140.565 131.584 150.735 133.604 151.865 142.214C152.165 144.484 151.435 146.214 152.655 148.354C153.825 150.434 156.295 151.524 157.605 153.544C161.115 158.964 157.455 165.004 151.735 166.574Z" fill="#B4CCB4"/>
<path d="M200.985 140.314C200.885 136.334 198.005 132.684 194.785 130.674C194.575 130.544 194.365 130.724 194.355 130.924C188.345 128.074 180.415 130.094 180.025 138.194C179.735 144.084 183.095 142.624 177.245 150.804C175.855 152.754 174.435 153.854 173.715 156.284C172.535 160.294 173.695 164.674 176.655 167.574C183.455 174.224 195.325 170.364 200.545 163.454C205.565 156.804 204.495 147.764 200.985 140.314ZM183.855 168.424C179.835 168.674 177.075 166.654 175.555 162.374C174.365 157.584 175.955 153.774 180.315 150.954C180.935 150.254 181.995 149.774 182.345 148.874C183.525 145.794 182.625 147.734 183.095 144.614C182.995 143.814 182.845 143.024 182.645 142.234C182.165 131.744 186.525 129.014 195.715 134.044C195.735 134.064 195.755 134.064 195.785 134.074C199.425 139.624 201.785 145.994 201.485 152.734C201.065 161.914 193.145 169.734 183.855 168.424Z" fill="#B4CCB4"/>
<path d="M248.795 207.154C249.245 205.804 249.165 203.874 248.195 202.704C257.615 195.504 258.515 179.374 245.795 174.784C235.745 171.154 221.405 181.994 224.975 192.864C223.655 192.924 222.415 193.264 221.605 194.444C220.785 195.644 220.675 197.244 221.305 198.544C221.805 199.554 222.775 200.194 223.835 200.434C221.485 206.784 219.725 213.314 218.075 219.874C216.555 225.964 213.895 233.174 214.025 239.474C214.035 239.784 214.275 240.174 214.575 240.274C218.765 241.694 222.315 235.114 224.645 232.514C230.985 225.414 236.735 217.894 242.125 210.064C242.965 210.494 243.945 210.644 244.945 210.464C246.715 210.154 248.225 208.854 248.795 207.154ZM229.515 223.864C227.445 226.384 220.145 237.024 217.495 236.114C214.845 235.204 223.065 208.034 225.095 200.554C225.415 200.534 225.745 200.494 226.045 200.404C226.075 201.854 226.805 203.374 227.915 204.274C229.555 205.604 232.405 205.894 234.485 204.964C234.635 206.164 235.495 207.284 236.725 207.704C237.605 208.004 238.945 207.864 240.065 207.364C240.135 207.744 240.265 208.124 240.475 208.494C240.575 208.674 240.695 208.844 240.815 209.004C237.225 214.084 233.475 219.044 229.515 223.864ZM245.755 207.994C245.035 208.434 243.925 208.654 243.125 208.334C242.225 207.984 241.235 206.734 241.945 205.774C242.075 205.594 242.095 205.374 242.045 205.174C242.055 205.084 242.065 204.984 242.065 204.894C242.055 204.554 241.705 204.274 241.375 204.314C240.175 204.454 239.465 205.734 238.235 205.954C236.985 206.174 235.515 204.964 236.195 203.674C236.215 203.644 236.255 203.624 236.275 203.594C236.725 202.984 236.195 202.284 235.495 202.434C233.585 202.854 231.955 203.984 229.935 203.154C228.195 202.434 227.605 200.664 227.915 198.994C228.085 198.714 228.215 198.394 228.295 198.034C228.325 197.894 228.295 197.774 228.245 197.664C228.245 197.654 228.245 197.644 228.235 197.624C228.225 197.614 228.215 197.594 228.205 197.584C228.125 197.374 227.905 197.244 227.665 197.314C227.475 197.304 227.295 197.344 227.145 197.484C226.655 197.984 225.865 198.414 225.105 198.544C224.955 198.494 224.795 198.504 224.665 198.574C223.955 198.564 223.315 198.244 223.045 197.334C222.495 195.454 223.945 194.544 225.485 194.144C225.485 194.154 225.495 194.164 225.495 194.164C225.695 194.604 226.405 194.514 226.365 193.974C226.365 193.934 226.365 193.894 226.365 193.854C226.635 193.624 226.625 193.214 226.345 193.004C226.215 183.794 233.605 173.634 243.985 176.194C256.635 179.314 255.365 195.164 246.455 201.544C245.795 202.014 245.995 202.834 246.485 203.194C246.795 204.004 247.215 204.644 247.185 205.564C247.125 206.574 246.625 207.464 245.755 207.994Z" fill="#B4CCB4"/>
<path d="M223.305 228.884C223.605 227.644 223.305 226.183 223.135 224.933C222.955 223.623 222.685 222.334 222.345 221.064C222.185 220.444 221.105 220.654 221.225 221.304C221.485 222.614 221.685 223.944 221.815 225.274C221.935 226.494 221.825 227.803 222.155 228.983C222.335 229.573 223.185 229.414 223.305 228.884Z" fill="#B4CCB4"/>
<path d="M227.565 223.014C227.415 221.504 226.915 220.014 226.665 218.514C226.415 217.004 226.225 215.484 226.105 213.954C226.055 213.314 225.115 213.404 225.125 214.034C225.155 216.984 225.195 220.514 226.365 223.264C226.625 223.894 227.635 223.744 227.565 223.014Z" fill="#B4CCB4"/>
<path d="M232.425 216.854C232.235 214.284 231.605 211.694 231.125 209.174C230.985 208.414 229.805 208.484 229.905 209.274C230.255 211.884 230.485 214.584 231.125 217.134C231.325 217.874 232.485 217.584 232.425 216.854Z" fill="#B4CCB4"/>
<path d="M200.855 188.714C200.455 188.374 200.005 188.364 199.625 188.534C199.165 186.234 194.915 185.124 193.015 184.814C193.305 183.804 193.595 182.804 193.965 181.824C194.265 181.024 195.175 179.854 195.135 178.994C195.075 177.764 193.485 177.304 192.505 177.414C188.735 177.834 188.855 183.494 189.745 186.294C189.725 186.274 189.715 186.254 189.695 186.244C187.835 184.884 185.485 184.974 183.805 186.424C183.735 186.374 183.665 186.334 183.565 186.334C176.275 186.354 167.625 190.214 166.455 198.284C165.365 205.814 171.635 211.444 178.095 213.694C186.415 216.594 195.945 215.904 201.645 208.544C206.375 202.444 206.945 193.994 200.855 188.714ZM189.175 187.144C189.565 187.354 189.895 187.084 189.935 186.754C190.065 186.974 190.445 186.954 190.425 186.654C190.355 184.944 190.445 183.094 190.805 181.424C191.065 180.214 192.375 178.014 193.695 179.114C192.725 181.084 191.865 183.154 191.385 185.304C191.315 185.604 191.425 185.844 191.605 185.994C191.695 186.344 191.985 186.654 192.515 186.714C193.415 186.824 196.145 187.254 196.795 188.064C197.975 189.544 194.965 188.384 194.395 188.174C193.995 188.024 193.395 188.344 193.325 188.774C193.235 189.364 193.175 189.954 193.125 190.534C192.465 189.914 191.805 189.284 191.155 188.664C190.775 188.304 190.085 188.344 189.825 188.834C189.605 189.234 189.375 189.614 189.135 189.974C189.215 189.214 189.175 188.514 188.855 188.044C188.335 187.304 187.065 187.084 185.895 186.964C186.875 186.494 188.005 186.514 189.175 187.144ZM199.715 207.224C195.085 213.324 186.785 214.184 179.855 211.954C172.555 209.594 166.205 203.384 169.825 195.114C171.945 190.284 178.455 188.764 183.055 187.394C182.955 187.814 183.105 188.294 183.605 188.384C184.225 188.494 186.855 188.564 187.235 189.014C187.765 189.644 186.925 192.134 186.805 192.864C186.665 193.674 187.565 194.284 188.215 193.684C189.225 192.744 190.035 191.754 190.755 190.624L193.335 193.084C193.865 193.594 194.805 193.234 194.805 192.474C194.795 191.674 194.845 190.924 194.925 190.154C196.245 190.544 198.205 190.904 199.145 190.174C199.185 190.224 199.205 190.274 199.265 190.324C204.595 194.944 203.605 202.094 199.715 207.224Z" fill="#B4CCB4"/>
<path d="M192.035 250.724C190.075 247.814 186.475 244.804 182.885 244.924C182.805 244.664 182.635 244.434 182.345 244.344C180.685 243.784 182.485 241.634 182.945 240.904C183.405 240.164 183.745 239.384 183.755 238.504C183.765 237.104 182.835 235.794 181.345 235.854C177.205 236.004 177.185 242.774 178.095 245.454C178.105 245.494 178.135 245.534 178.155 245.564C175.125 244.854 171.815 246.114 170.065 248.704C165.805 246.494 159.295 255.664 158.325 258.804C155.225 268.894 166.145 273.764 174.115 275.404C182.645 277.164 193.775 276.374 197.985 267.354C200.215 262.594 199.225 250.594 192.035 250.724ZM171.225 250.154C171.355 249.924 171.515 249.704 171.695 249.504C173.305 247.514 175.825 246.504 178.355 246.574C178.765 246.584 178.915 246.144 178.765 245.844C179.035 245.814 179.265 245.634 179.235 245.294C179.055 243.514 179.135 241.694 179.725 239.994C179.875 239.544 180.085 238.784 180.455 238.454C180.605 238.034 180.905 237.994 181.325 238.334C182.005 238.274 182.195 238.544 181.895 239.124C181.745 239.924 180.885 240.714 180.505 241.404C179.625 242.984 179.755 245.344 181.605 245.914C181.605 246.164 181.725 246.404 182.045 246.544C183.635 247.224 185.295 247.524 186.785 248.464C187.375 248.834 187.905 249.274 188.395 249.744C187.165 249.474 185.895 249.384 184.595 249.494C184.285 249.384 183.895 249.534 183.735 249.804C183.285 250.594 183.455 251.504 183.485 252.384C183.505 252.834 183.555 253.274 183.595 253.724C182.505 253.004 181.615 252.044 180.875 250.914C180.695 250.644 180.445 250.584 180.215 250.644C179.335 250.764 178.545 251.494 177.885 252.344C177.855 251.594 177.785 250.844 177.665 250.114C177.675 250.104 177.695 250.104 177.715 250.104C178.335 249.874 178.315 248.754 177.545 248.854C176.225 249.014 174.925 249.364 173.625 249.654C172.835 249.834 172.015 250.094 171.205 250.194C171.215 250.174 171.225 250.174 171.225 250.154ZM196.625 263.084C196.095 266.184 194.525 268.614 192.145 270.624C187.025 274.934 179.485 274.214 173.455 272.834C171.605 272.414 169.845 271.904 168.085 271.174C163.475 269.264 159.885 264.904 160.515 259.404C160.795 257.004 166.105 250.444 169.535 249.564C169.115 250.494 169.115 251.744 170.355 251.944C171.275 252.094 172.505 251.454 173.395 251.234C174.515 250.954 175.655 250.694 176.765 250.374C176.535 251.864 176.555 253.414 176.385 254.914C176.285 255.754 177.535 255.984 177.915 255.324C178.365 254.554 178.875 253.824 179.485 253.164C179.745 252.884 180.045 252.634 180.295 252.364C181.245 253.974 182.625 255.304 184.225 256.274C184.865 256.664 185.735 256.164 185.725 255.414C185.705 254.334 185.615 253.244 185.495 252.174C185.445 251.714 185.425 251.264 185.345 250.844C187.375 251.194 189.265 251.854 191.035 252.994C191.455 253.264 191.905 253.164 192.225 252.894C195.445 254.304 197.115 260.204 196.625 263.084Z" fill="#B4CCB4"/>
<path d="M132.565 311.414C134.765 302.864 137.005 294.764 135.375 285.924C135.125 284.584 133.725 284.554 132.915 285.264C132.945 284.574 132.895 283.854 132.715 283.104C136.265 287.084 142.865 284.664 143.045 279.204C143.235 273.574 138.145 271.304 133.535 272.154C135.605 266.964 136.125 260.194 129.855 257.944C126.765 256.834 123.215 258.664 122.115 261.404C120.655 259.354 119.215 256.904 116.765 257.064C113.195 257.304 111.465 262.634 110.615 266.194C107.345 263.874 103.235 261.954 99.5052 264.224C96.8752 265.824 95.5952 268.864 96.6852 271.594C95.4052 271.994 94.1752 272.584 93.0552 273.364C91.0752 267.614 83.9252 266.274 80.1452 271.274C79.1452 267.394 75.1552 264.724 70.8452 265.524C63.8152 266.824 61.6052 273.694 62.1052 279.954C56.7452 277.594 50.0252 279.794 49.0052 286.444C48.8352 287.544 49.3652 289.794 50.2452 291.754C46.3452 290.944 42.0052 291.584 39.5252 294.994C37.6652 297.554 37.4252 300.934 38.9052 303.564C36.0252 304.194 33.2552 305.704 32.7452 308.884C32.4052 310.964 33.2652 313.174 34.9752 314.134C32.2352 316.734 30.9052 321.394 34.2952 324.054C36.6952 325.934 39.9552 325.384 41.7952 323.414C45.5152 329.354 55.0852 327.724 55.9652 319.974C56.2452 320.244 56.5652 320.464 56.8752 320.694C56.0952 320.494 55.3052 321.454 55.9952 322.184C69.0752 335.984 84.4352 343.944 101.455 351.874C106.005 353.994 110.435 356.384 113.955 360.054C116.955 363.174 118.815 367.094 121.595 370.384C125.135 374.564 130.765 378.314 136.425 376.144C151.505 370.364 135.805 351.014 132.875 343.034C129.015 332.504 129.835 322.064 132.565 311.414ZM100.235 267.044C102.535 265.684 104.665 265.624 106.605 266.864C108.175 267.514 109.445 268.504 110.795 269.514C111.425 269.984 112.545 269.504 112.675 268.744C113.265 265.404 114.855 257.924 119.225 261.094C120.275 261.854 120.965 262.974 121.845 263.924C121.935 264.464 122.125 265.014 122.435 265.554C123.035 266.624 124.375 265.904 124.345 264.884C124.445 264.754 124.515 264.594 124.535 264.434C127.175 259.794 129.535 259.194 131.635 262.674C132.395 263.834 132.645 265.084 132.385 266.434C132.425 269.234 131.315 271.404 129.885 273.774C129.205 274.904 130.545 276.174 131.665 275.554C134.175 274.144 137.895 273.724 139.775 276.654C142.045 280.184 137.245 285.264 133.805 281.384C133.245 280.754 132.525 281.134 132.285 281.724C132.145 281.384 131.995 281.034 131.805 280.684C131.065 279.304 129.035 280.514 129.725 281.904C133.265 289.094 123.105 294.064 119.565 286.804C119.055 285.764 117.265 286.244 117.345 287.404C117.675 291.914 113.445 293.894 110.225 292.254C111.705 290.094 111.545 286.934 108.845 284.714C110.885 282.094 110.965 277.894 108.515 274.844C106.175 271.924 102.815 270.794 99.4752 271.054L100.235 267.044ZM120.515 312.584C114.755 319.664 108.965 307.554 105.115 302.414C105.945 301.894 106.665 301.134 107.195 300.074C108.175 298.114 108.025 296.044 106.995 294.464C107.625 294.314 108.185 294.054 108.685 293.734C112.425 296.594 117.755 294.934 119.285 290.584C120.405 291.714 121.725 292.364 123.095 292.634C123.045 292.724 122.975 292.794 122.935 292.904C120.835 298.924 124.695 307.454 120.515 312.584ZM54.8252 318.224C54.3152 318.294 53.8352 318.634 53.7952 319.284C53.3052 325.904 44.7152 326.494 43.1152 320.204C42.7352 318.724 40.8252 319.234 40.6552 320.534C40.2152 323.954 34.9952 323.054 34.6752 319.564C34.4752 317.344 36.0852 315.534 37.6852 314.284C37.9652 314.074 38.0152 313.794 37.9352 313.534C37.9352 313.214 37.7852 312.914 37.4352 312.744C35.4752 311.854 34.5352 309.674 36.1752 307.664C37.2852 306.294 39.8352 305.974 41.4052 305.884C42.4752 305.824 43.2752 304.414 42.3452 303.604C39.5652 301.164 40.3352 296.864 43.2952 294.844C45.7052 293.194 48.7652 293.334 51.5152 293.924C52.7452 295.524 54.2352 296.074 55.5752 293.734C56.1852 292.654 54.6152 291.764 53.9252 292.774C52.3252 292.334 51.5452 291.324 51.5652 289.774C51.0352 288.454 51.0252 287.114 51.5452 285.764C53.5352 281.234 58.6352 279.794 62.7652 282.994C63.6752 283.694 64.9652 283.074 64.7152 281.854C63.8752 277.744 63.8952 273.044 67.2252 269.914C71.6252 265.774 78.3752 268.054 78.2952 274.264C78.2852 275.374 80.0852 275.684 80.2852 274.534C80.3652 274.084 80.3852 273.644 80.3852 273.214C80.5252 273.164 80.6552 273.084 80.7552 272.934C84.9652 268.074 88.4952 268.844 91.3452 275.244C91.4552 276.164 92.4452 276.664 93.1852 276.004C95.6252 273.824 98.6752 272.634 102.035 273.364C102.895 273.704 103.765 274.034 104.625 274.374C109.305 277.284 108.695 280.804 102.825 284.944C101.405 284.894 101.475 286.964 102.825 287.104C104.575 287.294 106.045 286.924 107.225 286.204C106.285 288.244 105.355 290.294 104.415 292.334C102.985 292.014 102.545 293.934 103.825 294.474C106.675 296.964 106.165 298.524 102.295 299.164C100.325 301.324 98.2952 301.494 96.2152 299.654C95.5252 299.274 94.5852 299.744 94.6052 300.574C94.6952 304.624 91.9952 306.854 89.0952 306.934C88.7252 305.674 87.2552 305.684 86.5752 306.424C85.2152 305.834 83.9752 304.724 83.1852 303.014C82.9052 302.404 81.9652 302.684 81.8652 303.244C81.2952 302.734 80.2752 303.324 80.7652 304.044C84.2852 309.324 77.1352 311.704 73.7852 309.814C71.2052 308.354 70.1852 305.734 69.5752 302.964C69.4152 302.244 68.2252 302.024 67.9052 302.744C66.2752 306.424 61.4752 308.874 57.6752 306.494C53.7852 304.064 54.2852 298.934 56.3552 295.584C56.8152 294.834 55.7752 294.054 55.1552 294.654C51.5052 298.204 52.1052 304.734 56.2252 307.734C59.0852 309.814 62.5752 309.624 65.3752 308.034C65.4452 308.194 65.5452 308.344 65.7052 308.484C68.4652 310.974 69.2652 315.504 66.4652 318.344C63.6352 321.214 58.9252 320.484 56.3152 317.784C55.8052 317.244 54.9652 317.644 54.8252 318.224ZM67.5052 306.664C67.4452 306.614 67.3852 306.604 67.3252 306.574C67.6752 306.244 68.0152 305.894 68.3152 305.514C69.7052 309.834 73.3152 314.214 78.2652 312.794C81.4452 311.884 83.5952 308.584 82.9952 305.544C83.9352 306.884 85.1352 307.774 86.4452 308.294C87.2352 311.194 87.8752 314.124 88.1652 317.124C88.3252 318.774 88.4152 320.464 88.3852 322.124C88.3452 325.094 88.5852 325.554 85.5952 327.124C82.5252 328.734 82.0652 328.154 79.2452 326.584C78.1352 325.964 77.0652 325.274 76.0152 324.554C73.5352 322.854 71.3752 320.904 69.2452 318.814C71.7052 315.104 71.0752 309.484 67.5052 306.664ZM139.445 366.144C137.365 368.584 135.275 371.034 133.195 373.474C130.715 373.374 128.615 372.524 126.895 370.924C121.435 366.814 118.985 359.764 113.625 355.384C108.545 351.234 102.335 348.874 96.3852 346.284C82.0452 340.054 69.2252 331.484 57.5452 321.104C60.6352 322.914 64.8052 322.854 67.6652 320.504C71.7752 325.194 82.1052 335.064 88.2952 330.814C90.8452 329.064 91.1752 325.784 91.2752 322.944C91.4352 318.154 90.8052 313.404 89.6152 308.784C92.8852 308.584 95.9952 306.244 96.6252 302.214C98.5852 303.054 100.885 303.554 102.915 303.214C106.895 308.784 110.865 321.314 119.945 317.094C128.735 313.014 123.635 300.664 125.955 293.724C126.095 293.314 126.035 292.974 125.905 292.674C128.775 292.224 131.415 290.274 132.465 287.524C134.495 302.744 125.435 316.914 127.075 332.314C127.735 338.534 129.555 344.544 132.465 350.074C134.055 353.094 136.135 355.864 137.605 358.954C138.445 360.794 139.945 364.044 139.445 366.144Z" fill="#B4CCB4"/>
</svg>
