<svg width="168" height="39" viewBox="0 0 168 39" fill="none" xmlns="http://www.w3.org/2000/svg">
<path d="M31.2749 7.3428C27.4022 7.3428 21.9311 7.66683 19.1352 10.4613C17.9247 11.6718 17.3202 13.6451 17.4771 15.8787C17.4975 16.1737 17.6937 16.425 17.9756 16.5181C18.256 16.6096 18.5641 16.5239 18.7559 16.2987C20.3108 14.4691 22.2435 13.0029 24.5046 11.9406C24.6964 11.8491 24.9231 11.8418 25.1295 11.9145C25.3111 11.9799 25.4535 12.1033 25.5276 12.2618C25.6816 12.5873 25.6322 13.016 25.1207 13.2572C25.0917 13.2717 25.0655 13.2906 25.0365 13.3037C25.0263 13.3081 25.0147 13.3066 25.006 13.311C19.4346 15.9296 16.6954 20.4983 15.4514 25.1964C14.5446 19.314 12.6294 15.8511 10.8202 13.7251C9.51095 12.0279 8.22341 11.1283 7.47943 10.6198C7.34136 10.5253 6.92435 10.2405 6.7514 10.0675C6.46803 9.78417 6.46803 9.3235 6.7514 9.04013C7.03477 8.7582 7.49687 8.7582 7.81218 9.07208C7.88923 9.1404 8.01272 9.22759 8.16966 9.33222L8.29902 9.41941C9.35108 10.1402 11.31 11.4785 13.0479 14.3601C13.2034 14.6173 13.5042 14.7554 13.7963 14.7002C14.0928 14.6479 14.3252 14.4197 14.3834 14.1247C14.7627 12.1877 14.5927 9.31328 12.8649 7.5855C10.069 4.7925 4.59789 4.46847 0.726671 4.46847C0.32553 4.4684 0 4.79393 0 5.195C0 9.06765 0.324032 14.5388 3.11846 17.3347C4.28387 18.5001 6.08147 19.0233 7.86736 19.0233C9.32486 19.0233 10.7533 18.6585 11.8476 18.0264C13.3399 21.1187 14.5316 25.7383 14.5316 32.805C14.5316 33.2061 14.8571 33.5316 15.2582 33.5316C15.6592 33.5316 15.9848 33.2061 15.9848 32.805C15.9848 28.8626 16.6605 24.1311 19.173 20.2366C20.18 21.2205 21.9137 21.8439 23.8347 21.902C23.9306 21.9049 24.0251 21.9063 24.1195 21.9063C26.0711 21.9063 27.796 21.2946 28.8815 20.2076C31.6773 17.4117 31.9999 11.9405 31.9999 8.06783C32.0015 7.66683 31.6774 7.3428 31.2749 7.3428Z" fill="#00B307"/>
<path d="M49.728 30.224C48.2347 30.224 46.8907 29.968 45.696 29.456C44.5013 28.9227 43.5627 28.176 42.88 27.216C42.1973 26.256 41.856 25.136 41.856 23.856H45.76C45.8453 24.816 46.2187 25.6053 46.88 26.224C47.5627 26.8427 48.512 27.152 49.728 27.152C50.9867 27.152 51.968 26.8533 52.672 26.256C53.376 25.6373 53.728 24.848 53.728 23.888C53.728 23.1413 53.504 22.5333 53.056 22.064C52.6293 21.5947 52.0853 21.232 51.424 20.976C50.784 20.72 49.888 20.4427 48.736 20.144C47.2853 19.76 46.1013 19.376 45.184 18.992C44.288 18.5867 43.52 17.968 42.88 17.136C42.24 16.304 41.92 15.1947 41.92 13.808C41.92 12.528 42.24 11.408 42.88 10.448C43.52 9.488 44.416 8.752 45.568 8.24C46.72 7.728 48.0533 7.472 49.568 7.472C51.7227 7.472 53.4827 8.016 54.848 9.104C56.2347 10.1707 57.0027 11.6427 57.152 13.52H53.12C53.056 12.7093 52.672 12.016 51.968 11.44C51.264 10.864 50.336 10.576 49.184 10.576C48.1387 10.576 47.2853 10.8427 46.624 11.376C45.9627 11.9093 45.632 12.6773 45.632 13.68C45.632 14.3627 45.8347 14.928 46.24 15.376C46.6667 15.8027 47.2 16.144 47.84 16.4C48.48 16.656 49.3547 16.9333 50.464 17.232C51.936 17.6373 53.1307 18.0427 54.048 18.448C54.9867 18.8533 55.776 19.4827 56.416 20.336C57.0773 21.168 57.408 22.288 57.408 23.696C57.408 24.8267 57.0987 25.8933 56.48 26.896C55.8827 27.8987 54.9973 28.7093 53.824 29.328C52.672 29.9253 51.3067 30.224 49.728 30.224ZM69.8725 12.08C71.2165 12.08 72.4112 12.368 73.4565 12.944C74.5232 13.52 75.3552 14.3733 75.9525 15.504C76.5712 16.6347 76.8805 18 76.8805 19.6V30H73.2645V20.144C73.2645 18.5653 72.8698 17.36 72.0805 16.528C71.2912 15.6747 70.2138 15.248 68.8485 15.248C67.4832 15.248 66.3952 15.6747 65.5845 16.528C64.7952 17.36 64.4005 18.5653 64.4005 20.144V30H60.7525V6.32H64.4005V14.416C65.0192 13.6693 65.7978 13.0933 66.7365 12.688C67.6965 12.2827 68.7418 12.08 69.8725 12.08ZM88.2218 30.288C86.5578 30.288 85.0538 29.9147 83.7098 29.168C82.3658 28.4 81.3098 27.3333 80.5418 25.968C79.7738 24.5813 79.3898 22.9813 79.3898 21.168C79.3898 19.376 79.7844 17.7867 80.5738 16.4C81.3631 15.0133 82.4404 13.9467 83.8058 13.2C85.1711 12.4533 86.6964 12.08 88.3818 12.08C90.0671 12.08 91.5924 12.4533 92.9578 13.2C94.3231 13.9467 95.4004 15.0133 96.1898 16.4C96.9791 17.7867 97.3738 19.376 97.3738 21.168C97.3738 22.96 96.9684 24.5493 96.1578 25.936C95.3471 27.3227 94.2378 28.4 92.8298 29.168C91.4431 29.9147 89.9071 30.288 88.2218 30.288ZM88.2218 27.12C89.1604 27.12 90.0351 26.896 90.8458 26.448C91.6778 26 92.3498 25.328 92.8618 24.432C93.3738 23.536 93.6298 22.448 93.6298 21.168C93.6298 19.888 93.3844 18.8107 92.8938 17.936C92.4031 17.04 91.7524 16.368 90.9418 15.92C90.1311 15.472 89.2564 15.248 88.3178 15.248C87.3791 15.248 86.5044 15.472 85.6938 15.92C84.9044 16.368 84.2751 17.04 83.8058 17.936C83.3364 18.8107 83.1018 19.888 83.1018 21.168C83.1018 23.0667 83.5818 24.5387 84.5418 25.584C85.5231 26.608 86.7498 27.12 88.2218 27.12ZM103.668 14.96C104.287 14.1493 105.129 13.4667 106.196 12.912C107.263 12.3573 108.468 12.08 109.812 12.08C111.348 12.08 112.745 12.464 114.004 13.232C115.284 13.9787 116.287 15.0347 117.012 16.4C117.737 17.7653 118.1 19.3333 118.1 21.104C118.1 22.8747 117.737 24.464 117.012 25.872C116.287 27.2587 115.284 28.3467 114.004 29.136C112.745 29.904 111.348 30.288 109.812 30.288C108.468 30.288 107.273 30.0213 106.228 29.488C105.183 28.9333 104.329 28.2507 103.668 27.44V38.384H100.02V12.368H103.668V14.96ZM114.388 21.104C114.388 19.888 114.132 18.8427 113.62 17.968C113.129 17.072 112.468 16.4 111.636 15.952C110.825 15.4827 109.951 15.248 109.012 15.248C108.095 15.248 107.22 15.4827 106.388 15.952C105.577 16.4213 104.916 17.104 104.404 18C103.913 18.896 103.668 19.952 103.668 21.168C103.668 22.384 103.913 23.4507 104.404 24.368C104.916 25.264 105.577 25.9467 106.388 26.416C107.22 26.8853 108.095 27.12 109.012 27.12C109.951 27.12 110.825 26.8853 111.636 26.416C112.468 25.9253 113.129 25.2213 113.62 24.304C114.132 23.3867 114.388 22.32 114.388 21.104ZM136.908 20.752C136.908 21.4133 136.865 22.0107 136.78 22.544H123.308C123.414 23.952 123.937 25.0827 124.876 25.936C125.814 26.7893 126.966 27.216 128.332 27.216C130.294 27.216 131.681 26.3947 132.492 24.752H136.428C135.894 26.3733 134.924 27.7067 133.516 28.752C132.129 29.776 130.401 30.288 128.332 30.288C126.646 30.288 125.132 29.9147 123.788 29.168C122.465 28.4 121.42 27.3333 120.652 25.968C119.905 24.5813 119.532 22.9813 119.532 21.168C119.532 19.3547 119.894 17.7653 120.62 16.4C121.366 15.0133 122.401 13.9467 123.724 13.2C125.068 12.4533 126.604 12.08 128.332 12.08C129.996 12.08 131.478 12.4427 132.78 13.168C134.081 13.8933 135.094 14.9173 135.82 16.24C136.545 17.5413 136.908 19.0453 136.908 20.752ZM133.1 19.6C133.078 18.256 132.598 17.1787 131.66 16.368C130.721 15.5573 129.558 15.152 128.172 15.152C126.913 15.152 125.836 15.5573 124.94 16.368C124.044 17.1573 123.51 18.2347 123.34 19.6H133.1ZM143.185 14.928C143.719 14.032 144.423 13.3387 145.297 12.848C146.193 12.336 147.249 12.08 148.465 12.08V15.856H147.537C146.108 15.856 145.02 16.2187 144.273 16.944C143.548 17.6693 143.185 18.928 143.185 20.72V30H139.537V12.368H143.185V14.928ZM166.731 12.368L155.915 38.288H152.139L155.723 29.712L148.779 12.368H152.843L157.803 25.808L162.955 12.368H166.731Z" fill="#002603"/>
</svg>
